<svg width="207" height="223" viewBox="0 0 207 223" fill="none" xmlns="http://www.w3.org/2000/svg">
<g style="mix-blend-mode:hard-light" filter="url(#filter0_f_1820_157)">
<path d="M85.6253 120.689L85.3346 126.205L79.8105 126.205L63.2695 126.205L103.286 162.787L143.302 126.205L126.919 126.205L120.891 126.205L121.099 120.181C121.299 114.424 122.151 110.364 123.882 106.732C125.118 104.139 126.837 101.801 128.453 99.6025C128.888 99.0109 129.316 98.4293 129.724 97.8557C132.95 93.328 137.264 91.5553 140.554 90.6262C141.531 90.3502 142.742 90.0721 143.624 89.8696C144.001 89.7831 144.318 89.7104 144.53 89.6576C144.697 89.616 144.841 89.5779 144.965 89.5436C144.981 89.4956 144.994 89.4539 145.005 89.4161C145.005 89.4158 145.005 89.4154 145.005 89.415L144.677 59.8396C127.177 60.1785 113.431 65.6127 103.178 71.7529C101.561 72.7218 99.5342 74.8797 97.3686 78.5282C95.2643 82.0733 93.3086 86.5472 91.6088 91.5005C88.1989 101.438 86.0507 112.618 85.6253 120.689ZM59.1142 122.407L59.1151 122.407L59.1142 122.407ZM148.286 123.914L148.896 124.04L148.286 123.914ZM148.286 125.099L148.701 124.379L148.286 125.099Z" stroke="#F32E7C" stroke-width="11.6458"/>
</g>
<g style="mix-blend-mode:hard-light" filter="url(#filter1_f_1820_157)">
<path d="M87.4145 120.783L87.0343 127.997L79.8105 127.997L67.8848 127.997L103.286 160.36L138.687 127.997L126.919 127.997L119.036 127.997L119.309 120.119C119.514 114.208 120.395 109.885 122.265 105.961C123.583 103.197 125.442 100.669 127.067 98.4612C127.486 97.8911 127.89 97.3423 128.265 96.8162C131.828 91.8152 136.592 89.8834 140.067 88.902C141.039 88.6275 142.313 88.3321 143.199 88.1283L142.906 61.6848C126.633 62.3401 113.782 67.491 104.099 73.2899C102.853 74.0361 101.012 75.8996 98.9093 79.4427C96.8864 82.8507 94.9775 87.2036 93.3035 92.082C89.9418 101.879 87.8303 112.895 87.4145 120.783ZM60.3228 121.084L60.324 121.085L60.3228 121.084Z" stroke="#FF26C2" stroke-width="15.2291"/>
</g>
<g style="mix-blend-mode:hard-light" filter="url(#filter2_ddi_1820_157)">
<path d="M85.6253 120.689L85.3346 126.205L79.8105 126.205L63.2695 126.205L103.286 162.787L143.302 126.205L126.919 126.205L120.891 126.205L121.099 120.181C121.299 114.424 122.151 110.364 123.882 106.732C125.118 104.139 126.837 101.801 128.453 99.6025C128.888 99.0109 129.316 98.4293 129.724 97.8557C132.95 93.328 137.264 91.5553 140.554 90.6262C141.531 90.3502 142.742 90.0721 143.624 89.8696C144.001 89.7831 144.318 89.7104 144.53 89.6576C144.697 89.616 144.841 89.5779 144.965 89.5436C144.981 89.4956 144.994 89.4539 145.005 89.4161C145.005 89.4158 145.005 89.4154 145.005 89.415L144.677 59.8396C127.177 60.1785 113.431 65.6127 103.178 71.7529C101.561 72.7218 99.5342 74.8797 97.3686 78.5282C95.2643 82.0733 93.3086 86.5472 91.6088 91.5005C88.1989 101.438 86.0507 112.618 85.6253 120.689ZM59.1142 122.407L59.1151 122.407L59.1142 122.407ZM148.286 123.914L148.896 124.04L148.286 123.914ZM148.286 125.099L148.701 124.379L148.286 125.099Z" stroke="#FB37FF" stroke-opacity="0.2" stroke-width="11.6458"/>
</g>
<g filter="url(#filter3_f_1820_157)">
<path d="M146.411 57.5833L146.411 57.5833C127.601 57.5833 112.892 63.3247 102.028 69.8315C99.945 71.0789 97.6866 73.6049 95.4428 77.385C93.2367 81.1016 91.2224 85.7266 89.4905 90.7736C86.0204 100.886 83.8263 112.272 83.3889 120.571L83.2099 123.966L79.8105 123.966L58.2856 123.966C58.2855 123.966 58.2855 123.966 58.2854 123.966C58.0488 123.966 57.8485 124.028 57.7133 124.106C57.7005 124.113 57.6887 124.121 57.6778 124.128L102.603 165.198C102.604 165.198 102.604 165.198 102.604 165.198C102.649 165.239 102.73 165.295 102.853 165.342C102.977 165.388 103.126 165.417 103.286 165.417C103.445 165.417 103.594 165.388 103.718 165.342C103.842 165.295 103.923 165.239 103.968 165.198L148.894 124.128C148.883 124.121 148.871 124.113 148.858 124.106L150.646 121.001L148.858 124.106C148.723 124.028 148.523 123.966 148.286 123.966C148.286 123.966 148.286 123.966 148.286 123.966L126.919 123.966L123.209 123.966L123.338 120.258C123.53 114.693 124.347 110.962 125.904 107.696C127.039 105.315 128.585 103.21 130.183 101.033C130.637 100.416 131.094 99.7922 131.548 99.1551C134.352 95.219 138.104 93.6452 141.162 92.7815C142.09 92.5195 143.144 92.278 144.001 92.0815C144.415 91.9866 144.784 91.9022 145.07 91.831C145.925 91.6186 146.385 91.4539 146.629 91.3391C146.649 91.3005 146.675 91.2527 146.706 91.1922C146.715 91.1751 146.725 91.1563 146.736 91.136C146.774 91.0629 146.822 90.9708 146.876 90.8695C146.893 90.8224 146.909 90.776 146.925 90.7322C146.95 90.6616 146.972 90.5977 146.989 90.5483C147.057 90.3561 147.11 90.1955 147.153 90.0484C147.234 89.7728 147.246 89.6534 147.247 89.6422C147.248 89.6419 147.248 89.6417 147.248 89.6416L146.893 57.6782C146.766 57.6233 146.601 57.5833 146.411 57.5833Z" stroke="#FB37FF" stroke-width="7.16663"/>
</g>
<g filter="url(#filter4_f_1820_157)">
<path d="M146.411 55.7917L146.411 55.7917C127.216 55.7917 112.193 61.6553 101.107 68.2945C98.6525 69.7646 96.2084 72.585 93.9021 76.4705C91.6146 80.3243 89.5534 85.0702 87.7959 90.1921C84.2775 100.445 82.0468 111.995 81.5997 120.477L81.5102 122.174L79.8105 122.174L58.2855 122.174C58.2855 122.174 58.2854 122.174 58.2854 122.174C57.7475 122.174 57.237 122.313 56.8192 122.553C56.4025 122.793 56.1149 123.112 55.9541 123.44C55.7957 123.763 55.7558 124.101 55.8228 124.424C55.8905 124.751 56.0738 125.089 56.3948 125.382L56.3951 125.383L101.395 166.521C101.395 166.521 101.395 166.521 101.395 166.521C101.618 166.724 101.899 166.898 102.227 167.02C102.555 167.143 102.916 167.208 103.286 167.208C103.655 167.208 104.016 167.143 104.345 167.02C104.673 166.898 104.953 166.724 105.176 166.521C105.176 166.521 105.176 166.521 105.176 166.521L150.176 125.383L150.177 125.382C150.498 125.089 150.681 124.751 150.749 124.424L152.503 124.788L150.749 124.424C150.816 124.101 150.776 123.763 150.617 123.44C150.456 123.112 150.169 122.793 149.752 122.553C149.334 122.313 148.824 122.174 148.286 122.174C148.286 122.174 148.286 122.174 148.286 122.174L126.919 122.174L125.064 122.174L125.128 120.32C125.316 114.908 126.104 111.44 127.521 108.467C128.576 106.254 129.986 104.332 131.564 102.182C132.032 101.544 132.515 100.886 133.008 100.195C135.474 96.7319 138.776 95.3172 141.649 94.5057C142.54 94.254 143.482 94.0386 144.311 93.8491C144.748 93.7493 145.152 93.6567 145.502 93.5697C146.645 93.2856 147.365 93.0283 147.813 92.7228C147.891 92.67 147.965 92.5976 148.078 92.4139C148.141 92.3114 148.205 92.193 148.294 92.0232C148.304 92.0038 148.314 91.9836 148.325 91.9626C148.38 91.8568 148.446 91.7313 148.518 91.6002C148.554 91.494 148.59 91.3922 148.624 91.2942C148.864 90.6053 149.037 90.1088 149.039 89.6539C149.039 89.6511 149.039 89.6483 149.039 89.6454L148.677 56.9346C148.52 56.6714 148.281 56.4199 147.953 56.2161C147.523 55.9486 146.984 55.7916 146.411 55.7917Z" stroke="white" stroke-width="3.58332"/>
</g>
<defs>
<filter id="filter0_f_1820_157" x="0.250267" y="0.250267" width="206.071" height="222.499" filterUnits="userSpaceOnUse" color-interpolation-filters="sRGB">
<feFlood flood-opacity="0" result="BackgroundImageFix"/>
<feBlend mode="normal" in="SourceGraphic" in2="BackgroundImageFix" result="shape"/>
<feGaussianBlur stdDeviation="26.8749" result="effect1_foregroundBlur_1820_157"/>
</filter>
<filter id="filter1_f_1820_157" x="36.0834" y="36.0834" width="134.404" height="150.833" filterUnits="userSpaceOnUse" color-interpolation-filters="sRGB">
<feFlood flood-opacity="0" result="BackgroundImageFix"/>
<feBlend mode="normal" in="SourceGraphic" in2="BackgroundImageFix" result="shape"/>
<feGaussianBlur stdDeviation="8.95829" result="effect1_foregroundBlur_1820_157"/>
</filter>
<filter id="filter2_ddi_1820_157" x="30.7084" y="48.625" width="145.154" height="161.583" filterUnits="userSpaceOnUse" color-interpolation-filters="sRGB">
<feFlood flood-opacity="0" result="BackgroundImageFix"/>
<feColorMatrix in="SourceAlpha" type="matrix" values="0 0 0 0 0 0 0 0 0 0 0 0 0 0 0 0 0 0 127 0" result="hardAlpha"/>
<feOffset dy="11.6458"/>
<feGaussianBlur stdDeviation="4.47914"/>
<feColorMatrix type="matrix" values="0 0 0 0 0.3 0 0 0 0 0 0 0 0 0 0.26 0 0 0 0.7 0"/>
<feBlend mode="multiply" in2="BackgroundImageFix" result="effect1_dropShadow_1820_157"/>
<feColorMatrix in="SourceAlpha" type="matrix" values="0 0 0 0 0 0 0 0 0 0 0 0 0 0 0 0 0 0 127 0" result="hardAlpha"/>
<feOffset dy="17.9166"/>
<feGaussianBlur stdDeviation="11.6458"/>
<feColorMatrix type="matrix" values="0 0 0 0 0.6 0 0 0 0 0 0 0 0 0 0.6 0 0 0 1 0"/>
<feBlend mode="color-dodge" in2="effect1_dropShadow_1820_157" result="effect2_dropShadow_1820_157"/>
<feBlend mode="normal" in="SourceGraphic" in2="effect2_dropShadow_1820_157" result="shape"/>
<feColorMatrix in="SourceAlpha" type="matrix" values="0 0 0 0 0 0 0 0 0 0 0 0 0 0 0 0 0 0 127 0" result="hardAlpha"/>
<feOffset dx="-1.16458" dy="2.32916"/>
<feGaussianBlur stdDeviation="0.582289"/>
<feComposite in2="hardAlpha" operator="arithmetic" k2="-1" k3="1"/>
<feColorMatrix type="matrix" values="0 0 0 0 1 0 0 0 0 1 0 0 0 0 1 0 0 0 0.5 0"/>
<feBlend mode="normal" in2="shape" result="effect3_innerShadow_1820_157"/>
</filter>
<filter id="filter3_f_1820_157" x="52.2083" y="52.2083" width="102.155" height="118.583" filterUnits="userSpaceOnUse" color-interpolation-filters="sRGB">
<feFlood flood-opacity="0" result="BackgroundImageFix"/>
<feBlend mode="normal" in="SourceGraphic" in2="BackgroundImageFix" result="shape"/>
<feGaussianBlur stdDeviation="0.895829" result="effect1_foregroundBlur_1820_157"/>
</filter>
<filter id="filter4_f_1820_157" x="52.8056" y="52.8056" width="100.96" height="117.389" filterUnits="userSpaceOnUse" color-interpolation-filters="sRGB">
<feFlood flood-opacity="0" result="BackgroundImageFix"/>
<feBlend mode="normal" in="SourceGraphic" in2="BackgroundImageFix" result="shape"/>
<feGaussianBlur stdDeviation="0.597219" result="effect1_foregroundBlur_1820_157"/>
</filter>
</defs>
</svg>
