<svg width="84" height="84" viewBox="0 0 84 84" fill="none" xmlns="http://www.w3.org/2000/svg">
<g filter="url(#filter0_d_579_3049)">
<circle cx="42" cy="42" r="25" fill="white"/>
</g>
<path d="M41.9978 32.3687C39.4429 32.3687 36.9926 33.3836 35.186 35.1902C33.3794 36.9968 32.3645 39.4471 32.3645 42.002C32.3645 44.5569 33.3794 47.0072 35.186 48.8138C36.9926 50.6204 39.4429 51.6353 41.9978 51.6353C44.5528 51.6353 47.003 50.6204 48.8096 48.8138C50.6162 47.0072 51.6312 44.5569 51.6312 42.002C51.6312 39.4471 50.6162 36.9968 48.8096 35.1902C47.003 33.3836 44.5528 32.3687 41.9978 32.3687ZM41.9978 48.2582C40.338 48.2582 38.7462 47.5989 37.5725 46.4252C36.3989 45.2515 35.7395 43.6597 35.7395 41.9999C35.7395 40.3401 36.3989 38.7483 37.5725 37.5746C38.7462 36.4009 40.338 35.7416 41.9978 35.7416C43.6576 35.7416 45.2495 36.4009 46.4231 37.5746C47.5968 38.7483 48.2562 40.3401 48.2562 41.9999C48.2562 43.6597 47.5968 45.2515 46.4231 46.4252C45.2495 47.5989 43.6576 48.2582 41.9978 48.2582Z" fill="#D6258F"/>
<path d="M52.0126 34.2602C53.2529 34.2602 54.2584 33.2547 54.2584 32.0144C54.2584 30.774 53.2529 29.7686 52.0126 29.7686C50.7722 29.7686 49.7667 30.774 49.7667 32.0144C49.7667 33.2547 50.7722 34.2602 52.0126 34.2602Z" fill="#D6258F"/>
<path d="M59.7769 29.7311C59.2947 28.4856 58.5576 27.3546 57.6131 26.4104C56.6685 25.4662 55.5372 24.7296 54.2915 24.2478C52.8339 23.7006 51.294 23.4047 49.7374 23.3728C47.7311 23.2853 47.0957 23.2603 42.0082 23.2603C36.9207 23.2603 36.2686 23.2603 34.279 23.3728C32.7236 23.4031 31.1848 23.699 29.729 24.2478C28.4831 24.729 27.3515 25.4654 26.4068 26.4097C25.4622 27.354 24.7253 28.4853 24.2436 29.7311C23.6963 31.1886 23.4011 32.7287 23.3707 34.2853C23.2811 36.2894 23.254 36.9248 23.254 42.0144C23.254 47.1019 23.254 47.7498 23.3707 49.7436C23.4019 51.3019 23.6957 52.8394 24.2436 54.2998C24.7267 55.5452 25.4642 56.676 26.4091 57.6202C27.354 58.5644 28.4854 59.301 29.7311 59.7832C31.1841 60.3523 32.7236 60.6694 34.2832 60.7207C36.2894 60.8082 36.9249 60.8353 42.0124 60.8353C47.0999 60.8353 47.7519 60.8353 49.7415 60.7207C51.298 60.689 52.8378 60.3939 54.2957 59.8478C55.541 59.3648 56.672 58.6276 57.6165 57.6831C58.5609 56.7386 59.2982 55.6077 59.7811 54.3623C60.329 52.904 60.6228 51.3665 60.654 49.8082C60.7436 47.804 60.7707 47.1686 60.7707 42.079C60.7707 36.9894 60.7707 36.3436 60.654 34.3498C60.6298 32.7712 60.3331 31.2087 59.7769 29.7311ZM57.2394 49.5894C57.226 50.7901 57.0069 51.9795 56.5915 53.1061C56.2787 53.9162 55.7997 54.6519 55.1854 55.2658C54.5712 55.8797 53.8352 56.3583 53.0249 56.6707C51.9107 57.0841 50.7339 57.3033 49.5457 57.3186C47.5665 57.4103 47.0082 57.4332 41.9332 57.4332C36.854 57.4332 36.3353 57.4332 34.3186 57.3186C33.131 57.3041 31.9547 57.0849 30.8415 56.6707C30.0284 56.3602 29.2894 55.8825 28.6725 55.2685C28.0556 54.6545 27.5745 53.9178 27.2603 53.1061C26.8508 51.9916 26.6318 50.8162 26.6124 49.629C26.5228 47.6498 26.5019 47.0915 26.5019 42.0165C26.5019 36.9394 26.5019 36.4207 26.6124 34.4019C26.6258 33.202 26.845 32.0132 27.2603 30.8873C27.8957 29.2436 29.1978 27.9498 30.8415 27.3207C31.9553 26.9085 33.1312 26.6893 34.3186 26.6728C36.2999 26.5832 36.8561 26.5582 41.9332 26.5582C47.0103 26.5582 47.5311 26.5582 49.5457 26.6728C50.734 26.687 51.911 26.9062 53.0249 27.3207C53.8351 27.6337 54.571 28.1128 55.1852 28.727C55.7994 29.3412 56.2785 30.0771 56.5915 30.8873C57.001 32.0018 57.22 33.1773 57.2394 34.3644C57.329 36.3457 57.3519 36.9019 57.3519 41.979C57.3519 47.054 57.3519 47.5998 57.2624 49.5915H57.2394V49.5894Z" fill="#D6258F"/>
<defs>
<filter id="filter0_d_579_3049" x="0" y="0" width="84" height="84" filterUnits="userSpaceOnUse" color-interpolation-filters="sRGB">
<feFlood flood-opacity="0" result="BackgroundImageFix"/>
<feColorMatrix in="SourceAlpha" type="matrix" values="0 0 0 0 0 0 0 0 0 0 0 0 0 0 0 0 0 0 127 0" result="hardAlpha"/>
<feMorphology radius="5" operator="dilate" in="SourceAlpha" result="effect1_dropShadow_579_3049"/>
<feOffset/>
<feGaussianBlur stdDeviation="6"/>
<feColorMatrix type="matrix" values="0 0 0 0 0.764706 0 0 0 0 0.027451 0 0 0 0 0.47451 0 0 0 1 0"/>
<feBlend mode="normal" in2="BackgroundImageFix" result="effect1_dropShadow_579_3049"/>
<feBlend mode="normal" in="SourceGraphic" in2="effect1_dropShadow_579_3049" result="shape"/>
</filter>
</defs>
</svg>
