<svg width="348" height="354" viewBox="0 0 348 354" fill="none" xmlns="http://www.w3.org/2000/svg">
<g style="mix-blend-mode:hard-light" filter="url(#filter0_f_1924_156)">
<path d="M12.8229 69.3735V69.3742C12.8229 116.989 27.3642 154.244 43.8335 181.742C47.3343 187.588 54.151 193.547 63.7685 199.256C73.2826 204.903 85.0356 210.012 97.7615 214.379C123.244 223.123 151.944 228.663 172.974 229.771L178.49 230.062V235.586V289.305C178.49 289.305 178.49 289.305 178.49 289.305C178.49 290.42 178.779 291.46 179.257 292.29C179.732 293.116 180.335 293.636 180.893 293.91C181.436 294.176 181.974 294.232 182.48 294.127C182.997 294.02 183.594 293.718 184.148 293.111L184.149 293.111L286.814 180.807C286.815 180.806 286.815 180.806 286.816 180.805C287.2 180.384 287.545 179.835 287.793 179.17C288.041 178.504 288.177 177.764 288.177 177C288.177 176.236 288.041 175.496 287.793 174.83C287.545 174.165 287.2 173.616 286.816 173.194C286.815 173.194 286.815 173.194 286.814 173.193L184.149 60.8893L184.148 60.8884C183.594 60.2821 182.997 59.9798 182.48 59.8726L183.663 54.1711L182.48 59.8726C181.974 59.7675 181.436 59.8244 180.893 60.0904C180.335 60.3639 179.732 60.8842 179.257 61.7103C178.779 62.5397 178.49 63.5797 178.49 64.6948C178.49 64.6949 178.49 64.6951 178.49 64.6953L178.49 118.02V124.048L172.466 123.839C158.842 123.367 149.989 121.378 142.348 117.736C136.7 115.044 131.766 111.423 126.378 107.468C124.801 106.311 123.186 105.125 121.501 103.925C112.503 97.5147 108.852 88.9344 106.787 81.6248C106.152 79.3744 105.595 76.9422 105.116 74.8497C104.871 73.7761 104.646 72.792 104.441 71.9677C103.733 69.1219 103.136 67.537 102.522 66.636C102.512 66.6213 102.504 66.6115 102.478 66.5879C102.443 66.5566 102.356 66.4862 102.16 66.366C101.948 66.2356 101.689 66.0948 101.266 65.8733C101.219 65.8488 101.17 65.823 101.118 65.7959C100.88 65.6718 100.591 65.5211 100.284 65.3542C100.054 65.2737 99.8411 65.1981 99.6381 65.1259C99.0211 64.9067 98.4951 64.7198 97.8451 64.5285C96.9385 64.2617 96.3447 64.1698 95.9805 64.1663L14.7357 65.0673C14.3663 65.3399 13.999 65.7237 13.6782 66.2392C13.1498 67.0882 12.8228 68.1854 12.8229 69.3735Z" stroke="#F32E7C" stroke-width="11.6458"/>
</g>
<g style="mix-blend-mode:hard-light" filter="url(#filter1_f_1924_156)">
<path d="M14.6145 69.3742V69.3733C14.6144 68.5049 14.8556 67.7381 15.1993 67.1858L14.6754 66.8597L15.1993 67.1858C15.2795 67.057 15.3607 66.9463 15.4406 66.8512L95.9766 65.9581C96.1125 65.9618 96.5241 66.0074 97.3393 66.2473C97.7374 66.3645 98.162 66.5062 98.6499 66.6766C98.7842 66.7235 98.9506 66.7824 99.131 66.8463C99.266 66.894 99.4088 66.9446 99.5518 66.9949C99.8299 67.1448 100.086 67.2785 100.292 67.3859C100.343 67.4125 100.391 67.4374 100.435 67.4606C100.819 67.6619 101.028 67.7759 101.18 67.8665C101.576 68.5544 102.072 69.8662 102.702 72.3999C102.891 73.1606 103.108 74.1082 103.349 75.1598C103.835 77.2809 104.417 79.825 105.063 82.1118C107.18 89.6064 110.99 98.6368 120.462 105.384C122.091 106.545 123.673 107.706 125.23 108.849C130.644 112.824 135.761 116.581 141.577 119.354C149.511 123.135 158.627 125.153 172.404 125.63L180.282 125.903V118.02L180.282 64.6954C180.282 64.6952 180.282 64.695 180.282 64.6948C180.282 63.8811 180.494 63.1513 180.809 62.6044C181.122 62.062 181.469 61.8035 181.681 61.6992C181.874 61.6047 182.008 61.6043 182.116 61.6269C182.239 61.6523 182.507 61.7492 182.825 62.097L182.826 62.0982L285.492 174.401C285.714 174.645 285.942 174.995 286.114 175.456L293.248 172.794L286.114 175.456C286.286 175.918 286.385 176.446 286.385 177C286.385 177.554 286.286 178.082 286.114 178.544C285.942 179.003 285.715 179.353 285.493 179.597L14.6145 69.3742ZM14.6145 69.3742C14.6145 116.604 29.0336 153.544 45.3705 180.822C48.6486 186.295 55.1709 192.069 64.683 197.715C74.0599 203.281 85.692 208.343 98.343 212.684C123.685 221.38 152.221 226.883 173.068 227.982L180.282 228.362V235.586V289.304C180.282 289.305 180.282 289.305 180.282 289.305C180.282 290.119 180.494 290.849 180.809 291.395C181.122 291.938 181.469 292.196 181.681 292.301C181.874 292.395 182.008 292.396 182.116 292.373L183.658 299.805L182.116 292.373C182.239 292.348 182.507 292.251 182.825 291.903L182.826 291.902L285.492 179.598L14.6145 69.3742Z" stroke="#FF26C2" stroke-width="15.2291"/>
</g>
<g style="mix-blend-mode:hard-light" filter="url(#filter2_ddi_1924_156)">
<path d="M12.8229 69.3735V69.3742C12.8229 116.989 27.3642 154.244 43.8335 181.742C47.3343 187.588 54.151 193.547 63.7685 199.256C73.2826 204.903 85.0356 210.012 97.7615 214.379C123.244 223.123 151.944 228.663 172.974 229.771L178.49 230.062V235.586V289.305C178.49 289.305 178.49 289.305 178.49 289.305C178.49 290.42 178.779 291.46 179.257 292.29C179.732 293.116 180.335 293.636 180.893 293.91C181.436 294.176 181.974 294.232 182.48 294.127C182.997 294.02 183.594 293.718 184.148 293.111L184.149 293.111L286.814 180.807C286.815 180.806 286.815 180.806 286.816 180.805C287.2 180.384 287.545 179.835 287.793 179.17C288.041 178.504 288.177 177.764 288.177 177C288.177 176.236 288.041 175.496 287.793 174.83C287.545 174.165 287.2 173.616 286.816 173.194C286.815 173.194 286.815 173.194 286.814 173.193L184.149 60.8893L184.148 60.8884C183.594 60.2821 182.997 59.9798 182.48 59.8726L183.663 54.1711L182.48 59.8726C181.974 59.7675 181.436 59.8244 180.893 60.0904C180.335 60.3639 179.732 60.8842 179.257 61.7103C178.779 62.5397 178.49 63.5797 178.49 64.6948C178.49 64.6949 178.49 64.6951 178.49 64.6953L178.49 118.02V124.048L172.466 123.839C158.842 123.367 149.989 121.378 142.348 117.736C136.7 115.044 131.766 111.423 126.378 107.468C124.801 106.311 123.186 105.125 121.501 103.925C112.503 97.5147 108.852 88.9344 106.787 81.6248C106.152 79.3744 105.595 76.9422 105.116 74.8497C104.871 73.7761 104.646 72.792 104.441 71.9677C103.733 69.1219 103.136 67.537 102.522 66.636C102.512 66.6213 102.504 66.6115 102.478 66.5879C102.443 66.5566 102.356 66.4862 102.16 66.366C101.948 66.2356 101.689 66.0948 101.266 65.8733C101.219 65.8488 101.17 65.823 101.118 65.7959C100.88 65.6718 100.591 65.5211 100.284 65.3542C100.054 65.2737 99.8411 65.1981 99.6381 65.1259C99.0211 64.9067 98.4951 64.7198 97.8451 64.5285C96.9385 64.2617 96.3447 64.1698 95.9805 64.1663L14.7357 65.0673C14.3663 65.3399 13.999 65.7237 13.6782 66.2392C13.1498 67.0882 12.8228 68.1854 12.8229 69.3735Z" stroke="#FB37FF" stroke-opacity="0.2" stroke-width="11.6458"/>
</g>
<g filter="url(#filter3_f_1924_156)">
<path d="M11.7767 65.0559L8.74014 63.1662L11.7767 65.0559C11.0176 66.2757 10.5831 67.7861 10.5833 69.3738V69.3742C10.5833 117.47 25.2775 155.118 41.9121 182.893C45.6914 189.203 52.8762 195.395 62.6253 201.182C72.3109 206.931 84.215 212.098 97.0346 216.497C122.693 225.302 151.597 230.887 172.856 232.007L176.25 232.186V235.586V289.305C176.25 289.305 176.25 289.305 176.25 289.305C176.251 290.797 176.635 292.225 177.316 293.407C177.996 294.588 178.917 295.435 179.907 295.92C180.887 296.401 181.932 296.528 182.935 296.32L183.663 299.827L182.935 296.32C183.945 296.111 184.952 295.552 185.801 294.622L185.802 294.622L288.468 182.317C288.468 182.317 288.468 182.317 288.469 182.317C289.056 181.673 289.547 180.873 289.891 179.953L293.248 181.206L289.891 179.953C290.235 179.032 290.417 178.026 290.417 177C290.417 175.974 290.235 174.968 289.891 174.047L293.248 172.794L289.891 174.047C289.547 173.127 289.056 172.327 288.469 171.683C288.468 171.683 288.468 171.683 288.468 171.682L185.802 59.3782L185.801 59.3776C184.952 58.4482 183.945 57.8891 182.935 57.6797L183.663 54.1711L182.935 57.6797C181.932 57.4716 180.887 57.5989 179.907 58.0794C178.917 58.5645 177.996 59.4119 177.316 60.5926C176.635 61.7753 176.251 63.2031 176.25 64.6948C176.25 64.6949 176.25 64.695 176.25 64.6951L176.25 118.02V121.729L172.543 121.601C159.112 121.136 150.587 119.182 143.312 115.715C137.873 113.122 133.167 109.67 127.816 105.743C126.214 104.568 124.555 103.351 122.801 102.101C114.394 96.1121 110.942 88.0944 108.943 81.016C108.319 78.8098 107.794 76.5116 107.325 74.4583C107.074 73.3609 106.839 72.3334 106.614 71.4274C105.904 68.5711 105.232 66.6365 104.373 65.3748C104.148 65.0453 103.859 64.7807 103.333 64.4577C103.048 64.2831 102.729 64.1113 102.304 63.8891C102.255 63.8632 102.204 63.8365 102.151 63.8089C101.867 63.6607 101.538 63.4888 101.198 63.3008C100.928 63.2081 100.666 63.1165 100.411 63.0274C98.6822 62.4229 97.2754 61.931 95.9763 61.9266C95.9704 61.9266 95.9645 61.9266 95.9586 61.9266L14.087 62.8348C13.2184 63.297 12.4085 64.0407 11.7767 65.0559Z" stroke="#FB37FF" stroke-width="7.16663"/>
</g>
<g filter="url(#filter4_f_1924_156)">
<path d="M102.978 62.2196C102.652 62.0491 102.293 61.8617 101.929 61.6577C101.65 61.5618 101.37 61.4631 101.089 61.3643C99.3524 60.7533 97.602 60.1373 95.9682 60.1349C95.965 60.1349 95.9618 60.1349 95.9586 60.1349L13.6646 61.0477C12.3299 61.6465 11.1356 62.6952 10.2556 64.1092C9.31186 65.6257 8.79145 67.4667 8.79166 69.374C8.79166 117.855 23.6081 155.818 40.375 183.814C44.3771 190.496 51.8563 196.873 61.7108 202.722C71.5335 208.553 83.5586 213.767 96.4531 218.192C122.251 227.044 151.32 232.666 172.761 233.797L174.459 233.886V235.586V289.305C174.459 291.098 174.919 292.836 175.763 294.301C176.607 295.766 177.784 296.875 179.119 297.529C180.449 298.181 181.898 298.365 183.299 298.075C184.703 297.783 186.038 297.019 187.124 295.831L187.124 295.831L289.791 183.526C289.791 183.526 289.791 183.526 289.791 183.525C290.541 182.704 291.15 181.704 291.569 180.58C291.989 179.454 292.208 178.236 292.208 177C292.208 175.764 291.989 174.546 291.569 173.42C291.15 172.295 290.541 171.295 289.791 170.474L187.124 58.1693L187.124 58.169C186.038 56.9811 184.703 56.2166 183.299 55.9254C181.898 55.6348 180.449 55.8185 179.119 56.4706C177.784 57.125 176.607 58.2341 175.763 59.6984C174.919 61.1638 174.459 62.9019 174.459 64.6949L174.459 118.02V119.874L172.605 119.81C159.327 119.35 151.066 117.426 144.082 114.097C138.811 111.585 134.286 108.266 128.968 104.365C127.347 103.176 125.652 101.933 123.84 100.642C115.907 94.99 112.614 87.4223 110.667 80.529C110.053 78.3571 109.552 76.1615 109.091 74.1421C108.837 73.0283 108.595 71.9681 108.353 70.9951C107.641 68.1305 106.91 65.9161 105.853 64.3659C105.442 63.7623 104.932 63.3377 104.27 62.931C103.929 62.7211 103.561 62.5244 103.135 62.3018C103.084 62.2749 103.031 62.2475 102.978 62.2196Z" stroke="white" stroke-width="3.58332"/>
</g>
<defs>
<filter id="filter0_f_1924_156" x="-46.7497" y="0.250267" width="394.499" height="353.499" filterUnits="userSpaceOnUse" color-interpolation-filters="sRGB">
<feFlood flood-opacity="0" result="BackgroundImageFix"/>
<feBlend mode="normal" in="SourceGraphic" in2="BackgroundImageFix" result="shape"/>
<feGaussianBlur stdDeviation="26.8749" result="effect1_foregroundBlur_1924_156"/>
</filter>
<filter id="filter1_f_1924_156" x="-10.9166" y="36.0834" width="322.833" height="281.833" filterUnits="userSpaceOnUse" color-interpolation-filters="sRGB">
<feFlood flood-opacity="0" result="BackgroundImageFix"/>
<feBlend mode="normal" in="SourceGraphic" in2="BackgroundImageFix" result="shape"/>
<feGaussianBlur stdDeviation="8.95829" result="effect1_foregroundBlur_1924_156"/>
</filter>
<filter id="filter2_ddi_1924_156" x="-16.2916" y="48.625" width="333.583" height="292.583" filterUnits="userSpaceOnUse" color-interpolation-filters="sRGB">
<feFlood flood-opacity="0" result="BackgroundImageFix"/>
<feColorMatrix in="SourceAlpha" type="matrix" values="0 0 0 0 0 0 0 0 0 0 0 0 0 0 0 0 0 0 127 0" result="hardAlpha"/>
<feOffset dy="11.6458"/>
<feGaussianBlur stdDeviation="4.47914"/>
<feColorMatrix type="matrix" values="0 0 0 0 0.3 0 0 0 0 0 0 0 0 0 0.26 0 0 0 0.7 0"/>
<feBlend mode="multiply" in2="BackgroundImageFix" result="effect1_dropShadow_1924_156"/>
<feColorMatrix in="SourceAlpha" type="matrix" values="0 0 0 0 0 0 0 0 0 0 0 0 0 0 0 0 0 0 127 0" result="hardAlpha"/>
<feOffset dy="17.9166"/>
<feGaussianBlur stdDeviation="11.6458"/>
<feColorMatrix type="matrix" values="0 0 0 0 0.6 0 0 0 0 0 0 0 0 0 0.6 0 0 0 1 0"/>
<feBlend mode="color-dodge" in2="effect1_dropShadow_1924_156" result="effect2_dropShadow_1924_156"/>
<feBlend mode="normal" in="SourceGraphic" in2="effect2_dropShadow_1924_156" result="shape"/>
<feColorMatrix in="SourceAlpha" type="matrix" values="0 0 0 0 0 0 0 0 0 0 0 0 0 0 0 0 0 0 127 0" result="hardAlpha"/>
<feOffset dx="-1.16458" dy="2.32916"/>
<feGaussianBlur stdDeviation="0.582289"/>
<feComposite in2="hardAlpha" operator="arithmetic" k2="-1" k3="1"/>
<feColorMatrix type="matrix" values="0 0 0 0 1 0 0 0 0 1 0 0 0 0 1 0 0 0 0.5 0"/>
<feBlend mode="normal" in2="shape" result="effect3_innerShadow_1924_156"/>
</filter>
<filter id="filter3_f_1924_156" x="5.20834" y="52.2083" width="290.583" height="249.583" filterUnits="userSpaceOnUse" color-interpolation-filters="sRGB">
<feFlood flood-opacity="0" result="BackgroundImageFix"/>
<feBlend mode="normal" in="SourceGraphic" in2="BackgroundImageFix" result="shape"/>
<feGaussianBlur stdDeviation="0.895829" result="effect1_foregroundBlur_1924_156"/>
</filter>
<filter id="filter4_f_1924_156" x="5.80556" y="52.8056" width="289.389" height="248.389" filterUnits="userSpaceOnUse" color-interpolation-filters="sRGB">
<feFlood flood-opacity="0" result="BackgroundImageFix"/>
<feBlend mode="normal" in="SourceGraphic" in2="BackgroundImageFix" result="shape"/>
<feGaussianBlur stdDeviation="0.597219" result="effect1_foregroundBlur_1924_156"/>
</filter>
</defs>
</svg>
