<svg width="282" height="282" viewBox="0 0 282 282" fill="none" xmlns="http://www.w3.org/2000/svg">
<g style="mix-blend-mode:hard-light" filter="url(#filter0_f_1920_156)">
<path d="M167.147 38.5251C167.736 37.617 169.144 37.9939 169.2 39.0752L172.981 111.116C173.092 113.228 174.55 115.029 176.593 115.576L246.276 134.242C247.322 134.522 247.398 135.977 246.388 136.365L179.041 162.223C177.067 162.981 175.805 164.924 175.916 167.036L179.696 239.077C179.753 240.158 178.393 240.68 177.712 239.839L132.309 183.779C130.977 182.135 128.739 181.536 126.765 182.294L59.4182 208.151C58.4074 208.54 57.4905 207.407 58.0802 206.499L97.3659 145.995C98.5177 144.221 98.3963 141.907 97.0651 140.263L51.6621 84.2036C50.9806 83.3622 51.7739 82.1403 52.8198 82.4205L122.503 101.087C124.546 101.634 126.709 100.803 127.861 99.0294L167.147 38.5251Z" stroke="#F32E7C" stroke-width="3.76458"/>
</g>
<g style="mix-blend-mode:hard-light" filter="url(#filter1_f_1920_156)">
<path d="M167.632 38.8405C167.73 38.6908 167.821 38.6412 167.888 38.6177C167.973 38.5879 168.092 38.5784 168.223 38.6135C168.355 38.6487 168.453 38.7163 168.512 38.7847C168.558 38.8387 168.613 38.9273 168.622 39.1055L172.403 111.146C172.527 113.509 174.158 115.523 176.443 116.135L246.126 134.801C246.299 134.848 246.374 134.919 246.417 134.976C246.472 135.048 246.518 135.158 246.525 135.293C246.532 135.429 246.498 135.543 246.451 135.62C246.414 135.681 246.347 135.76 246.18 135.824L178.834 161.682C176.625 162.53 175.213 164.704 175.337 167.067L179.118 239.107C179.127 239.285 179.083 239.379 179.042 239.438C178.991 239.512 178.9 239.589 178.773 239.638C178.646 239.687 178.527 239.69 178.439 239.669C178.37 239.653 178.274 239.613 178.162 239.474L132.759 183.415C131.27 181.576 128.766 180.905 126.557 181.753L59.2106 207.611C59.044 207.675 58.9409 207.661 58.8727 207.641C58.7863 207.615 58.6847 207.553 58.5991 207.447C58.5135 207.341 58.4739 207.229 58.4665 207.139C58.4606 207.068 58.4687 206.964 58.5659 206.815L97.8516 146.31C99.1401 144.326 99.0043 141.738 97.5152 139.899L52.1121 83.8391C51.9998 83.7004 51.9809 83.5981 51.9793 83.5269C51.9773 83.4367 52.0049 83.3209 52.0789 83.2069C52.153 83.0928 52.2476 83.0205 52.3308 82.9856C52.3965 82.9581 52.4976 82.9338 52.67 82.9799L122.353 101.646C124.638 102.258 127.058 101.329 128.347 99.3448L167.632 38.8405Z" stroke="#FF26C2" stroke-width="4.92292"/>
</g>
<g style="mix-blend-mode:hard-light" filter="url(#filter2_ddi_1920_156)">
<path d="M167.147 38.5251C167.736 37.617 169.144 37.9939 169.2 39.0752L172.981 111.116C173.092 113.228 174.55 115.029 176.593 115.576L246.276 134.242C247.322 134.522 247.398 135.977 246.388 136.365L179.041 162.223C177.067 162.981 175.805 164.924 175.916 167.036L179.696 239.077C179.753 240.158 178.393 240.68 177.712 239.839L132.309 183.779C130.977 182.135 128.739 181.536 126.765 182.294L59.4182 208.151C58.4074 208.54 57.4905 207.407 58.0802 206.499L97.3659 145.995C98.5177 144.221 98.3963 141.907 97.0651 140.263L51.6621 84.2036C50.9806 83.3622 51.7739 82.1403 52.8198 82.4205L122.503 101.087C124.546 101.634 126.709 100.803 127.861 99.0294L167.147 38.5251Z" stroke="#FB37FF" stroke-opacity="0.2" stroke-width="3.76458"/>
</g>
<g filter="url(#filter3_f_1920_156)">
<path d="M166.539 38.1308C167.511 36.6345 169.83 37.2556 169.923 39.0372L173.704 111.078C173.798 112.877 175.04 114.41 176.781 114.877L246.464 133.543C248.187 134.004 248.313 136.401 246.647 137.041L179.301 162.898C177.619 163.544 176.544 165.199 176.639 166.998L180.419 239.039C180.513 240.821 178.272 241.681 177.149 240.295L131.746 184.235C130.612 182.835 128.706 182.324 127.024 182.97L59.6777 208.827C58.0122 209.467 56.5014 207.601 57.473 206.105L96.7587 145.601C97.7398 144.09 97.6363 142.119 96.5025 140.719L51.0995 84.6592C49.9766 83.2728 51.2838 81.2596 53.0072 81.7212L122.69 100.387C124.43 100.853 126.273 100.146 127.254 98.6351L166.539 38.1308Z" stroke="#FB37FF" stroke-width="2.31667"/>
</g>
<g filter="url(#filter4_f_1920_156)">
<path d="M166.054 37.8154C167.331 35.8485 170.379 36.665 170.502 39.0069L174.282 111.047C174.364 112.596 175.433 113.916 176.93 114.317L246.613 132.983C248.879 133.59 249.044 136.741 246.855 137.582L179.508 163.439C178.061 163.995 177.136 165.42 177.217 166.968L180.998 239.009C181.121 241.35 178.175 242.481 176.699 240.659L131.296 184.599C130.32 183.394 128.679 182.955 127.232 183.511L59.8853 209.368C57.696 210.209 55.7101 207.757 56.9872 205.79L96.273 145.285C97.1174 143.985 97.0283 142.289 96.0524 141.084L50.6494 85.0237C49.1734 83.2014 50.8918 80.555 53.157 81.1618L122.84 99.8279C124.338 100.229 125.924 99.6202 126.768 98.3197L166.054 37.8154Z" stroke="white" stroke-width="1.15833"/>
</g>
<defs>
<filter id="filter0_f_1920_156" x="32.1428" y="18.7545" width="234.219" height="240.763" filterUnits="userSpaceOnUse" color-interpolation-filters="sRGB">
<feFlood flood-opacity="0" result="BackgroundImageFix"/>
<feBlend mode="normal" in="SourceGraphic" in2="BackgroundImageFix" result="shape"/>
<feGaussianBlur stdDeviation="8.6875" result="effect1_foregroundBlur_1920_156"/>
</filter>
<filter id="filter1_f_1920_156" x="43.7262" y="30.3379" width="211.053" height="217.597" filterUnits="userSpaceOnUse" color-interpolation-filters="sRGB">
<feFlood flood-opacity="0" result="BackgroundImageFix"/>
<feBlend mode="normal" in="SourceGraphic" in2="BackgroundImageFix" result="shape"/>
<feGaussianBlur stdDeviation="2.89583" result="effect1_foregroundBlur_1920_156"/>
</filter>
<filter id="filter2_ddi_1920_156" x="41.9887" y="34.392" width="214.528" height="221.072" filterUnits="userSpaceOnUse" color-interpolation-filters="sRGB">
<feFlood flood-opacity="0" result="BackgroundImageFix"/>
<feColorMatrix in="SourceAlpha" type="matrix" values="0 0 0 0 0 0 0 0 0 0 0 0 0 0 0 0 0 0 127 0" result="hardAlpha"/>
<feOffset dy="3.76458"/>
<feGaussianBlur stdDeviation="1.44792"/>
<feColorMatrix type="matrix" values="0 0 0 0 0.3 0 0 0 0 0 0 0 0 0 0.26 0 0 0 0.7 0"/>
<feBlend mode="multiply" in2="BackgroundImageFix" result="effect1_dropShadow_1920_156"/>
<feColorMatrix in="SourceAlpha" type="matrix" values="0 0 0 0 0 0 0 0 0 0 0 0 0 0 0 0 0 0 127 0" result="hardAlpha"/>
<feOffset dy="5.79167"/>
<feGaussianBlur stdDeviation="3.76458"/>
<feColorMatrix type="matrix" values="0 0 0 0 0.6 0 0 0 0 0 0 0 0 0 0.6 0 0 0 1 0"/>
<feBlend mode="color-dodge" in2="effect1_dropShadow_1920_156" result="effect2_dropShadow_1920_156"/>
<feBlend mode="normal" in="SourceGraphic" in2="effect2_dropShadow_1920_156" result="shape"/>
<feColorMatrix in="SourceAlpha" type="matrix" values="0 0 0 0 0 0 0 0 0 0 0 0 0 0 0 0 0 0 127 0" result="hardAlpha"/>
<feOffset dx="-0.376458" dy="0.752917"/>
<feGaussianBlur stdDeviation="0.188229"/>
<feComposite in2="hardAlpha" operator="arithmetic" k2="-1" k3="1"/>
<feColorMatrix type="matrix" values="0 0 0 0 1 0 0 0 0 1 0 0 0 0 1 0 0 0 0.5 0"/>
<feBlend mode="normal" in2="shape" result="effect3_innerShadow_1920_156"/>
</filter>
<filter id="filter3_f_1920_156" x="48.9387" y="35.5503" width="200.628" height="207.172" filterUnits="userSpaceOnUse" color-interpolation-filters="sRGB">
<feFlood flood-opacity="0" result="BackgroundImageFix"/>
<feBlend mode="normal" in="SourceGraphic" in2="BackgroundImageFix" result="shape"/>
<feGaussianBlur stdDeviation="0.289583" result="effect1_foregroundBlur_1920_156"/>
</filter>
<filter id="filter4_f_1920_156" x="49.1317" y="35.7434" width="200.242" height="206.786" filterUnits="userSpaceOnUse" color-interpolation-filters="sRGB">
<feFlood flood-opacity="0" result="BackgroundImageFix"/>
<feBlend mode="normal" in="SourceGraphic" in2="BackgroundImageFix" result="shape"/>
<feGaussianBlur stdDeviation="0.193056" result="effect1_foregroundBlur_1920_156"/>
</filter>
</defs>
</svg>
