<svg width="84" height="84" viewBox="0 0 84 84" fill="none" xmlns="http://www.w3.org/2000/svg">
<g filter="url(#filter0_d_579_3046)">
<circle cx="42" cy="42" r="25" fill="white"/>
</g>
<path d="M61.9562 31.2812C62.2479 30.3125 61.9562 29.6021 60.577 29.6021H56.0083C54.8458 29.6021 54.3145 30.2166 54.0229 30.8916C54.0229 30.8916 51.7 36.5562 48.4083 40.2291C47.3458 41.2979 46.8604 41.6354 46.2812 41.6354C45.9916 41.6354 45.5708 41.2979 45.5708 40.3291V31.2812C45.5708 30.1187 45.2354 29.6021 44.2666 29.6021H37.0875C36.3625 29.6021 35.925 30.1396 35.925 30.6521C35.925 31.7521 37.5708 32.0062 37.7395 35.1062V41.8312C37.7395 43.3041 37.475 43.5729 36.8916 43.5729C35.3437 43.5729 31.577 37.8875 29.3416 31.3791C28.9062 30.1146 28.4666 29.6041 27.3 29.6041H22.7333C21.427 29.6041 21.1666 30.2187 21.1666 30.8937C21.1666 32.1062 22.7145 38.1062 28.377 46.0416C32.152 51.4604 37.4666 54.3979 42.3083 54.3979C45.2104 54.3979 45.5687 53.7458 45.5687 52.6208V48.525C45.5687 47.2208 45.8458 46.9583 46.7645 46.9583C47.4395 46.9583 48.602 47.3 51.3125 49.9104C54.4083 53.0062 54.9208 54.3958 56.6604 54.3958H61.227C62.5312 54.3958 63.1833 53.7437 62.8083 52.4562C62.3979 51.175 60.9187 49.3104 58.9562 47.1041C57.8895 45.8458 56.2958 44.4916 55.8104 43.8146C55.1333 42.9416 55.3291 42.5562 55.8104 41.7812C55.8125 41.7833 61.377 33.9458 61.9562 31.2812Z" fill="#D6258F"/>
<defs>
<filter id="filter0_d_579_3046" x="0" y="0" width="84" height="84" filterUnits="userSpaceOnUse" color-interpolation-filters="sRGB">
<feFlood flood-opacity="0" result="BackgroundImageFix"/>
<feColorMatrix in="SourceAlpha" type="matrix" values="0 0 0 0 0 0 0 0 0 0 0 0 0 0 0 0 0 0 127 0" result="hardAlpha"/>
<feMorphology radius="5" operator="dilate" in="SourceAlpha" result="effect1_dropShadow_579_3046"/>
<feOffset/>
<feGaussianBlur stdDeviation="6"/>
<feColorMatrix type="matrix" values="0 0 0 0 0.788235 0 0 0 0 0.027451 0 0 0 0 0.486275 0 0 0 1 0"/>
<feBlend mode="normal" in2="BackgroundImageFix" result="effect1_dropShadow_579_3046"/>
<feBlend mode="normal" in="SourceGraphic" in2="effect1_dropShadow_579_3046" result="shape"/>
</filter>
</defs>
</svg>
